<svg xmlns="http://www.w3.org/2000/svg">

	<symbol id="icon-firstquart" viewBox="0 0 16 32">
	<title>firstquart</title>
	<path d="M0.128 0c-0.043 0-0.085 0-0.128 0v32c0.043 0 0.085 0 0.128 0 8.836 0 16-7.164 16-16s-7.164-16-16-16z"></path>
	</symbol>

	<symbol id="icon-fullmoon" viewBox="0 0 32 32">
	<title>fullmoon</title>
	<path d="M32 16c0 8.837-7.163 16-16 16s-16-7.163-16-16c0-8.837 7.163-16 16-16s16 7.163 16 16z"></path>
	</symbol>

	<symbol id="icon-lastquart" viewBox="0 0 16 32">
	<title>lastquart</title>
	<path d="M16 0c-8.836 0-16 7.164-16 16s7.164 16 16 16z"></path>
	</symbol>

	<symbol id="icon-waning" viewBox="0 0 32 32">
	<title>waning</title>
	<path d="M16 31.999c0 0 0.001 0 0.001 0 0.654 0 1.298-0.039 1.931-0.115l-0.076 0.007c-6.82-0.852-12.096-6.666-12.096-13.716 0-7.635 6.189-13.824 13.824-13.824 0.002 0 0.005 0 0.008 0 4.698 0 8.847 2.345 11.342 5.929l0.030 0.045c-2.292-6.038-8.125-10.326-14.964-10.326-8.836 0-16 7.168-16 16s7.164 16 16 16z"></path>
	</symbol>

	<symbol id="icon-waxing" viewBox="0 0 32 32">
	<title>waxing</title>
	<path d="M14.964 0c-0.654 0-1.299 0.039-1.933 0.115l0.077-0.007c6.82 0.852 12.096 6.668 12.096 13.716 0 7.635-6.189 13.824-13.824 13.824-0.002 0-0.005 0-0.008 0-4.697 0-8.847-2.345-11.342-5.929l-0.030-0.045c2.292 6.038 8.125 10.326 14.964 10.326 8.836 0 16-7.164 16-16s-7.164-16-16-16z"></path>
	</symbol>

</svg>
